<svg xmlns="http://www.w3.org/2000/svg" viewBox="0 0 420 220" role="img" aria-label="4皇后两个可行解">
<style>
  .sq{stroke:#334;stroke-width:1.2;fill:#fff}
  .sq-d{fill:#e8f0ec}
  .q{fill:#1f7a5a;font-size:22px;font-weight:700;text-anchor:middle;dominant-baseline:middle;font-family:sans-serif}
  text{font-family:"PingFang SC","Microsoft YaHei",sans-serif}
</style>
<text x="105" y="18" text-anchor="middle" font-size="14" font-weight="700">解1：(2,4,1,3)</text>
<text x="315" y="18" text-anchor="middle" font-size="14" font-weight="700">解2：(3,1,4,2)</text>
<rect class="sq" x="10" y="30" width="45" height="45" fill="#fff"/><rect class="sq" x="55" y="30" width="45" height="45" fill="#e8f0ec"/><rect class="sq" x="100" y="30" width="45" height="45" fill="#fff"/><rect class="sq" x="145" y="30" width="45" height="45" fill="#e8f0ec"/><rect class="sq" x="10" y="75" width="45" height="45" fill="#e8f0ec"/><rect class="sq" x="55" y="75" width="45" height="45" fill="#fff"/><rect class="sq" x="100" y="75" width="45" height="45" fill="#e8f0ec"/><rect class="sq" x="145" y="75" width="45" height="45" fill="#fff"/><rect class="sq" x="10" y="120" width="45" height="45" fill="#fff"/><rect class="sq" x="55" y="120" width="45" height="45" fill="#e8f0ec"/><rect class="sq" x="100" y="120" width="45" height="45" fill="#fff"/><rect class="sq" x="145" y="120" width="45" height="45" fill="#e8f0ec"/><rect class="sq" x="10" y="165" width="45" height="45" fill="#e8f0ec"/><rect class="sq" x="55" y="165" width="45" height="45" fill="#fff"/><rect class="sq" x="100" y="165" width="45" height="45" fill="#e8f0ec"/><rect class="sq" x="145" y="165" width="45" height="45" fill="#fff"/><text class="q" x="77" y="52">♛</text><text class="q" x="167" y="97">♛</text><text class="q" x="32" y="142">♛</text><text class="q" x="122" y="187">♛</text><rect class="sq" x="220" y="30" width="45" height="45" fill="#fff"/><rect class="sq" x="265" y="30" width="45" height="45" fill="#e8f0ec"/><rect class="sq" x="310" y="30" width="45" height="45" fill="#fff"/><rect class="sq" x="355" y="30" width="45" height="45" fill="#e8f0ec"/><rect class="sq" x="220" y="75" width="45" height="45" fill="#e8f0ec"/><rect class="sq" x="265" y="75" width="45" height="45" fill="#fff"/><rect class="sq" x="310" y="75" width="45" height="45" fill="#e8f0ec"/><rect class="sq" x="355" y="75" width="45" height="45" fill="#fff"/><rect class="sq" x="220" y="120" width="45" height="45" fill="#fff"/><rect class="sq" x="265" y="120" width="45" height="45" fill="#e8f0ec"/><rect class="sq" x="310" y="120" width="45" height="45" fill="#fff"/><rect class="sq" x="355" y="120" width="45" height="45" fill="#e8f0ec"/><rect class="sq" x="220" y="165" width="45" height="45" fill="#e8f0ec"/><rect class="sq" x="265" y="165" width="45" height="45" fill="#fff"/><rect class="sq" x="310" y="165" width="45" height="45" fill="#e8f0ec"/><rect class="sq" x="355" y="165" width="45" height="45" fill="#fff"/><text class="q" x="332" y="52">♛</text><text class="q" x="242" y="97">♛</text><text class="q" x="377" y="142">♛</text><text class="q" x="287" y="187">♛</text></svg>